<svg xmlns="http://www.w3.org/2000/svg" viewBox="0 0 367.19 217.93"><defs><style>.cls-1{fill:#7843e5;}.cls-2{fill:#fa06fd;}.cls-3{fill:#09f9fd;}</style></defs><g id="Layer_2" data-name="Layer 2"><g id="Layer_1-2" data-name="Layer 1"><path class="cls-1" d="M61,211.09a4.15,4.15,0,0,1-3.46,3.11c-6.09,0-12.19-.09-18.29-.1-8.56,0-8.64,0-8.6-8.63,0-2.66-.53-3.85-3.57-4.3-13.52-2-20.87-8.45-22.9-20.39a68.32,68.32,0,0,1-.39-14.52c.8-16.82-2.29-33.82,2.31-50.46a44,44,0,0,1,9.58-8.9c.51.06,1,0,.95-.66l-.06.05c8.26-2.29,16.59-4.13,25.24-4.23,10.12-.12,20.19.12,29.87,3.51,10.52,3.69,16.25,10.69,16,21.81-.45,20.7,2.77,41.56-2.28,62.09l-6,6-.69.55-.5.29a2.66,2.66,0,0,0-.34.53v-.09c-4.35,1.87-8.7,3.73-13.39,4.59-2.82-.15-3.93,1.12-3.61,4A53.54,53.54,0,0,1,61,211.09ZM38.26,129.52a5.69,5.69,0,0,0-3.79,5.8q0,18.26,0,36.51c0,3.74,2.07,5.66,5.6,6.25a33.84,33.84,0,0,0,11.49,0c2-.34,3.9-.86,4.68-3.08a5.82,5.82,0,0,0,.87-3.53c0-11.94-.05-23.87,0-35.8,0-3.73-1.64-5.88-5.25-6.49A31.55,31.55,0,0,0,38.26,129.52Z"/><path class="cls-1" d="M116.08,7.55a9.17,9.17,0,0,1,4.56-4.46c12.83,0,25.67,0,38.51-.09,4,0,6.47,1.69,7.88,5.5q5.41,14.71,11.19,29.29c3.77,9.49,5.91,19.17,5.52,29.48s-.08,20.44-.07,30.66a5.51,5.51,0,0,1-2.42,2.95c-5.75.58-11.57-.56-17.3.7-1.32-1-2.87-.53-4.31-.55-5.46-.1-6.71-1.31-6.75-6.87,0-4.71-.1-9.42,0-14.13.06-2.22-.6-3.07-2.93-3-5.82.15-11.65.08-17.48.1-2.82-.54-3.84.45-3.71,3.46.25,5.77.09,11.56.1,17.34a6.92,6.92,0,0,1-2.59,3c-5.35.61-10.8-.61-16.12.76-1-1-2.36-.59-3.55-.61-6.79-.08-7.63-.92-7.63-7.85,0-10.22-.09-20.44,0-30.66a51.87,51.87,0,0,1,1-9.62C102.31,42,107.27,32,110.91,21.54c1.55-4.42,4-8.54,4.44-13.34l0,0C115.82,8.28,116,8,116.08,7.55ZM150.47,49.3c-1-5.5-3.21-10.62-4.6-16-.83-3.16-2.58-4.66-5.9-4.06a3.1,3.1,0,0,0-3.29,2.48c-2.13,6.72-4.21,13.47-6.43,20.62,6.75,0,13.07.09,19.39,0C152.55,52.25,151.08,50.56,150.47,49.3Z"/><path class="cls-1" d="M186.42,190.25q-3.93,4-7.84,8.05c-.55,0-1.05.08-1.13.77l0,0c-3.53.22-6.54,2.19-9.93,2.94-11.42,2.51-22.95,2.54-34.5,1.3a49.91,49.91,0,0,1-13.71-3.39c-9.6-3.93-14.42-11.19-14.5-21.42-.16-23.55-.14-47.1-.19-70.64l1.12-3,2.78-.89,19.76,0c6.64,0,7.35.69,7.35,7.17q0,28.73,0,57.44c0,1.88-.06,3.75.94,5.43,2.93,4.92,17.63,4.7,20.56-.31,1-.81.93-2,.92-3.08q0-31.3-.11-62.61l1.51-3.18,2.63-.9q10.08,0,20.15,0c5.31,0,6.4,1.08,6.41,6.27q0,32.83,0,65.68a30.45,30.45,0,0,1-2.5,13.06C185.94,189.59,185.91,189.93,186.42,190.25Z"/><path class="cls-1" d="M286.67,174.24c3-5.34,7.38-9.58,11.16-14.3,6.92-8.63,14.05-17.1,21.1-25.64a8.1,8.1,0,0,0,3.25-4.08H295.39c-5.71,0-6.51-.8-6.54-6.37q-.06-8-.13-16c.31-2.26,1.75-3.42,3.87-3.9,1.37,0,2.74.1,4.11.1q29.13,0,58.26,0c4.89,0,6.07,1.08,6,5.9-.2,8.56.86,17.16-.92,25.67l-30,36.47c-1.57.67-2.34,2-3.25,3.41,1.32.85,2.58.46,3.75.46,8.95,0,17.89,0,26.84,0,5,0,6.22,1.25,6.26,6.15.05,5.6,0,11.19,0,16.78a5.29,5.29,0,0,1-3.64,3.17L292.72,202c-5.37,0-6.65-1.19-6.62-6.56C286.13,188.38,285.65,181.29,286.67,174.24Z"/><path class="cls-1" d="M204.42,180a5.66,5.66,0,0,1,4.19-4.17c3.93,0,7.86-.06,11.78.18,2.48.15,3-.94,2.65-3,0-13.2,0-26.4.11-39.6,0-2.4-.62-3.37-3.12-3.21-3,.19-6,0-9,0-5.35,0-6.46-1.13-6.52-6.62-.06-5.23,0-10.46-.06-15.69.48-1,1-2,1.43-3l2.71-.9q28.92,0,57.86,0c4.78,0,5.94,1.19,6,6,0,5.72,0,11.44,0,17.17a5.11,5.11,0,0,1-3.72,3.16l-10.87-.06c-1.85,0-3.6-.5-3.55,2.64.18,13.46.12,26.93,0,40.39,0,2.18.77,2.8,2.83,2.71,2.86-.14,5.73-.05,8.6,0,5.5,0,6.63,1.12,6.65,6.49s0,11,0,16.46a5.27,5.27,0,0,1-3.74,3.18L211,202c-5.12,0-6.37-1.23-6.45-6.36S204.46,185.22,204.42,180Z"/><path class="cls-1" d="M266,97.93a5.51,5.51,0,0,1-2.42,2.95q-24,.08-48.06.12a15.29,15.29,0,0,0-5.13.59c-2-1.18-4.11-.48-6.16-.55-4.56-.16-5.76-1.24-5.81-5.71-.06-5.45-.08-10.9-.11-16.35.22-2.4,1.88-3.43,3.9-4.12,4,0,7.94,0,11.9.13,2.43.09,3.27-.7,2.28-3,0-13.34.07-26.68.19-40,0-2.15-.79-2.83-2.86-2.76-3.36.12-6.73.07-10.09,0-4-.07-5.15-1.21-5.2-5.12-.08-5.73-.07-11.47-.1-17.2a4.62,4.62,0,0,1,3.87-4c.74,0,1.49.09,2.23.09Q232,3,259.67,3c5.34,0,6.27,1,6.3,6.34,0,5.6,0,11.2,0,16.8a4.51,4.51,0,0,1-3.32,3.12l-11.15,0c-1.8,0-3.71-.61-3.68,2.53.13,13.55.09,27.1,0,40.66,0,2,.72,2.59,2.61,2.55,3.48-.08,7,0,10.44.07s5.16,1.73,5.08,5.34C265.88,86.24,266,92.09,266,97.93Z"/><path class="cls-2" d="M104.66,107.83c0,23.54,0,47.09.19,70.64.08,10.23,4.9,17.49,14.5,21.42a49.91,49.91,0,0,0,13.71,3.39c11.55,1.24,23.08,1.21,34.5-1.3,3.39-.75,6.4-2.72,9.93-2.94-2.56,3.39-6.42,4.72-10.18,5.74a89.51,89.51,0,0,1-48,.08c-12.73-3.53-18.14-11.14-18.19-24.43-.09-22.32,0-44.65-.05-67C101.07,110.76,101.47,108.44,104.66,107.83Z"/><path class="cls-2" d="M6.1,115.8c-4.6,16.64-1.51,33.64-2.31,50.46a68.32,68.32,0,0,0,.39,14.52c2,11.94,9.38,18.4,22.9,20.39,3,.45,3.58,1.64,3.57,4.3,0,8.63,0,8.62,8.6,8.63,6.1,0,12.2.06,18.29.1-.43,2.69-2.13,3.74-4.73,3.73q-10.65,0-21.31,0c-3.34,0-4.56-1.73-4.66-4.91-.23-7-.31-7-7.16-8.79-13-3.36-19.53-11.49-19.62-25q-.13-23.74.06-47.48C.18,125.81,1.47,120.13,6.1,115.8Z"/><path class="cls-3" d="M183.67,97.93c0-10.22-.31-20.45.07-30.66s-1.75-20-5.52-29.48Q172.43,23.23,167,8.5c-1.41-3.81-3.9-5.52-7.88-5.5-12.84.07-25.68.07-38.51.09a5.43,5.43,0,0,1,5.2-3Q145.1,0,164.36.08a5.48,5.48,0,0,1,5.37,3.46c5.68,15.39,12.73,30.29,16.76,46.28,1.17,4.67.76,9.42.78,14.15.06,9.6,0,19.19,0,28.79C187.3,95.38,186.71,97.49,183.67,97.93Z"/><path class="cls-3" d="M85.41,189.47c5-20.53,1.83-41.39,2.28-62.09.24-11.12-5.49-18.12-16-21.81-9.68-3.39-19.75-3.63-29.87-3.51-8.65.1-17,1.94-25.24,4.23,5.12-4.2,11.34-5.45,17.61-6.29,12.91-1.73,25.83-1.87,38.48,1.74,13.16,3.74,18.73,11.07,18.84,24.67.12,15.55,0,31.11,0,46.66a26,26,0,0,1-3.12,13.27C87.67,187.61,87.08,189.08,85.41,189.47Z"/><path class="cls-3" d="M186.42,190.25c-.51-.32-.48-.66-.23-1.21a30.45,30.45,0,0,0,2.5-13.06q0-32.83,0-65.68c0-5.19-1.1-6.25-6.41-6.27q-10.08,0-20.15,0a3.18,3.18,0,0,1,1.83-2.41c5.73-1.25,11.55-.11,17.3-.69,1.62,0,3.23.1,4.85.12,5,.07,6.22,1.2,6.24,6.13,0,9.35,0,18.7,0,28.05,0,12.59,0,25.18,0,37.77a29.77,29.77,0,0,1-2.85,13.77C188.77,188.13,188.22,189.75,186.42,190.25Z"/><path class="cls-2" d="M286.67,174.24c-1,7-.54,14.14-.57,21.21,0,5.37,1.25,6.55,6.62,6.56l67.19.07c-.46,2.71-2.24,3.69-4.79,3.69q-33.84,0-67.67,0c-3.26,0-4.73-1.69-4.71-4.91,0-6.35,0-12.71.06-19.06C282.85,178.71,283.74,175.92,286.67,174.24Z"/><path class="cls-2" d="M108.56,104l-2.78.89c-10.26-.43-10.26-.43-10.26-10.78,0-8.1.19-16.21,0-24.3a63.54,63.54,0,0,1,4.34-24.84q6.25-16.39,12.57-32.75c.6-1.57,1-3.43,3-4-.42,4.8-2.89,8.92-4.44,13.34C107.27,32,102.31,42,100.09,52.89a51.87,51.87,0,0,0-1,9.62C98.92,72.73,99,83,99,93.17c0,6.93.84,7.77,7.63,7.85,1.19,0,2.51-.43,3.55.61A2.73,2.73,0,0,0,108.56,104Z"/><path class="cls-3" d="M360,135.6c1.78-8.51.72-17.11.92-25.67.11-4.82-1.07-5.89-6-5.9q-29.13,0-58.26,0c-1.37,0-2.74-.06-4.11-.1.55-2.5,2.51-2.88,4.57-2.89q31.32,0,62.64,0c3.2,0,4.8,1.6,4.79,4.84,0,7.09,0,14.17,0,21.26A9.79,9.79,0,0,1,360,135.6Z"/><path class="cls-2" d="M204.42,180c0,5.21,0,10.43.12,15.64S205.87,202,211,202l57.76.09c-.28,2.61-2,3.64-4.35,3.64q-29.29,0-58.59,0c-3,0-4.59-1.53-4.59-4.62,0-5.59,0-11.19,0-16.79C201.24,182.14,202,180.46,204.42,180Z"/><path class="cls-3" d="M266,97.93c0-5.84-.1-11.69,0-17.53.08-3.61-1.55-5.3-5.08-5.34s-7-.15-10.44-.07c-1.89,0-2.62-.57-2.61-2.55.06-13.56.1-27.11,0-40.66,0-3.14,1.88-2.53,3.68-2.53l.15,3.74c0,12.07,0,24.15-.16,36.22,0,2.08.53,2.87,2.7,2.77,3.36-.16,6.73-.11,10.09,0,3.91.1,5.22,1.35,5.28,5.12.07,5.36,0,10.71,0,16.06C269.6,95.68,268.77,97.53,266,97.93Z"/><path class="cls-3" d="M272.49,198.92c0-5.49,0-11,0-16.46s-1.15-6.46-6.65-6.49c-2.87,0-5.74-.11-8.6,0-2.06.09-2.84-.53-2.83-2.71.09-13.46.15-26.93,0-40.39,0-3.14,1.7-2.67,3.55-2.64.09,1.25.19,2.5.28,3.74-.05,12.22-.08,24.43-.19,36.65,0,1.83.72,2.36,2.44,2.32q5-.12,10.1,0c4.1.1,5.47,1.36,5.55,5.36.1,5.23.05,10.47,0,15.71C276.06,196.47,275.29,198.48,272.49,198.92Z"/><path class="cls-2" d="M204.48,107.91c0,5.23,0,10.46.06,15.69.06,5.49,1.17,6.6,6.52,6.62,3,0,6,.15,9,0,2.5-.16,3.15.81,3.12,3.21-.12,13.2-.09,26.4-.11,39.6l-3.6-.19c0-11.82-.07-23.65.05-35.47,0-2.52-.54-3.57-3.26-3.38-3.34.23-6.72,0-10.08.06-3.2.07-5-1.35-5-4.62q0-8.58,0-17.17C201.21,110,202.12,108.38,204.48,107.91Z"/><path class="cls-3" d="M266,26.16c0-5.6,0-11.2,0-16.8,0-5.38-1-6.33-6.3-6.34Q232,3,204.41,3c-.74,0-1.49-.06-2.23-.09.61-2.42,2.5-2.9,4.6-2.9q28.92,0,57.83,0c3.37,0,5,1.58,5,5-.06,5.47,0,10.94,0,16.41C269.6,24,268.84,25.84,266,26.16Z"/><path class="cls-3" d="M210.37,101.59a15.29,15.29,0,0,1,5.13-.59q24,0,48.06-.12c2.47.05,4.95.15,7.42.12,3.17,0,5,1.46,5.07,4.61q.17,8.53,0,17.08c0,2.24-.9,4.15-3.55,4.47,0-5.73,0-11.45,0-17.17,0-4.77-1.2-5.95-6-6q-28.94,0-57.86,0A2.91,2.91,0,0,1,210.37,101.59Z"/><path class="cls-2" d="M198.31,6.88c0,5.73,0,11.47.1,17.2.05,3.91,1.24,5.05,5.2,5.12,3.36.05,6.73.1,10.09,0,2.07-.07,2.88.61,2.86,2.76-.12,13.34-.14,26.68-.19,40l-3-.17c0-11.84-.08-23.68.06-35.53,0-2.61-.66-3.5-3.32-3.32-3.35.23-6.73,0-10.09.07s-5-1.46-5.07-4.61c-.11-5.73-.09-11.47,0-17.2C195,9.06,195.92,7.33,198.31,6.88Z"/><path class="cls-2" d="M288.72,107.82q.06,8,.13,16c0,5.57.83,6.36,6.54,6.37h26.79a8.1,8.1,0,0,1-3.25,4.08c-8.93-.67-17.88-.16-26.82-.28-6.32-.09-6.95-.68-7-7.13,0-4.73,0-9.46,0-14.18C285.13,110.16,286.05,108.37,288.72,107.82Z"/><path class="cls-3" d="M363.55,198.91c0-5.59.09-11.18,0-16.78,0-4.9-1.28-6.12-6.26-6.15-8.95,0-17.89,0-26.84,0-1.17,0-2.43.39-3.75-.46.91-1.38,1.68-2.74,3.25-3.41,1,1.49,2.48.84,3.75.85,9.07.06,18.14,0,27.21,0,5,0,6.13,1.17,6.2,6.18q.09,7.28,0,14.54C367.09,196.13,366.68,198.49,363.55,198.91Z"/><path class="cls-2" d="M210.37,101.59a2.91,2.91,0,0,0-1.75,2.39l-2.71.9-5.6-.12c-4-.11-5.33-1.31-5.42-5.43-.1-5.1-.06-10.21,0-15.32,0-2.37.53-4.53,3.4-5,0,5.45.05,10.9.11,16.35,0,4.47,1.25,5.55,5.81,5.71C206.26,101.11,208.41,100.41,210.37,101.59Z"/><path class="cls-3" d="M213.35,71.79l3,.17c1,2.33.15,3.12-2.28,3-4-.15-7.93-.1-11.9-.13.64-2.36,2.53-2.79,4.56-2.89C209,71.86,211.15,71.85,213.35,71.79Z"/><path class="cls-3" d="M219.44,172.8l3.6.19c.35,2.09-.17,3.18-2.65,3-3.92-.24-7.85-.14-11.78-.18.62-2.41,2.57-2.74,4.59-2.86S217.36,172.86,219.44,172.8Z"/><path class="cls-2" d="M251.67,33l-.15-3.74,11.15,0C262.27,32,260.55,33,258,33,255.88,33,253.78,33,251.67,33Z"/><path class="cls-2" d="M258.18,134c-.09-1.24-.19-2.49-.28-3.74l10.87.06c-.22,2.62-1.89,3.59-4.27,3.65C262.39,134,260.29,134,258.18,134Z"/><path class="cls-2" d="M64.54,201.32c4.69-.86,9-2.72,13.39-4.59-3.19,4.6-8.27,5.9-13.17,7.5C64.68,203.26,64.61,202.29,64.54,201.32Z"/><path class="cls-3" d="M64.54,201.32c.07,1,.14,1.94.22,2.91-.53,2.68.74,6.35-3.76,6.86a53.54,53.54,0,0,0-.07-5.81C60.61,202.44,61.72,201.17,64.54,201.32Z"/><path class="cls-3" d="M16.63,106.24c0,.71-.44.72-.95.66Z"/><path class="cls-2" d="M116.08,7.55c-.09.4-.26.73-.76.69Z"/><path class="cls-2" d="M78.76,196l.69-.55Z"/><path class="cls-2" d="M77.92,196.82a2.66,2.66,0,0,1,.34-.53A5.24,5.24,0,0,0,77.92,196.82Z"/><path class="cls-2" d="M177.45,199.07c.08-.69.58-.76,1.13-.77Z"/><path class="cls-3" d="M56.26,175c-.78,2.22-2.7,2.74-4.68,3.08a33.84,33.84,0,0,1-11.49,0c-3.53-.59-5.6-2.51-5.6-6.25q0-18.26,0-36.51a5.69,5.69,0,0,1,3.79-5.8c0,1,0,2,0,3q-.07,18.21-.14,36.43c0,3.57,2,5.54,5.34,6a31.66,31.66,0,0,0,10.37.06Z"/><path class="cls-2" d="M38.25,132.52c0-1,0-2,0-3a31.55,31.55,0,0,1,13.64-.36c3.61.61,5.28,2.76,5.25,6.49-.07,11.93,0,23.86,0,35.8a5.82,5.82,0,0,1-.87,3.53l-2.44.06c0-11.55,0-23.1,0-34.64,0-5.09-1.65-7.1-6.63-7.71A85.4,85.4,0,0,0,38.25,132.52Z"/><path class="cls-3" d="M126.31,100.87c2.49,0,5,.08,7.47.14,4.29.1,5.53,1.3,5.53,5.64q0,27.28,0,54.58c0,2.24-.08,4.49,0,6.72.17,3.07,1.67,5.11,4.82,5.8a29.91,29.91,0,0,0,11.47.19l1.52-.19c-2.93,5-17.63,5.23-20.56.31-1-1.68-.94-3.55-.94-5.43q0-28.71,0-57.44c0-6.48-.71-7.15-7.35-7.17l-19.76,0a2.73,2.73,0,0,1,1.63-2.34C115.51,100.26,121,101.48,126.31,100.87Z"/><path class="cls-2" d="M159.49,104.88c-10.72-.13-10-.66-9.94-10.66,0-3.46-.15-6.94,0-10.4.15-2.52-.81-3.15-3.19-3.06-4.57.17-9.16,0-13.74,0,0-1.23-.1-2.46-.16-3.69,5.83,0,11.66,0,17.48-.1,2.33-.06,3,.79,2.93,3-.13,4.71-.06,9.42,0,14.13,0,5.56,1.29,6.77,6.75,6.87,1.44,0,3-.49,4.31.55a3.15,3.15,0,0,0-1.83,2.4Z"/><path class="cls-3" d="M150.47,49.3c.61,1.26,2.08,3-.83,3-6.32.13-12.64,0-19.39,0,2.22-7.15,4.3-13.9,6.43-20.62A3.1,3.1,0,0,1,140,29.25L139.16,33a53.29,53.29,0,0,0-1.95,5.57c-.85,3.55-4.26,8.48-2.36,10.16,2.17,1.91,7.3.48,11.14.51Z"/><path class="cls-2" d="M150.47,49.3,146,49.2c-1.26-4.12-2.51-8.25-3.79-12.36-.52-1.66-1.09-3.32-3-3.88l.81-3.71c3.32-.6,5.07.9,5.9,4.06C147.26,38.68,149.51,43.8,150.47,49.3Z"/><path class="cls-3" d="M132.51,77.12c.06,1.23.11,2.46.16,3.69q-.07,6.14-.14,12.29c0,2.48-.87,4.38-3.63,4.82,0-5.78.15-11.57-.1-17.34C128.67,77.57,129.69,76.58,132.51,77.12Z"/><path class="cls-2" d="M157.17,173.75l-1.52.19c-1.29-.88-.87-2.24-.87-3.42q0-28.34,0-56.67c0-2.47-.27-5.19,3.2-5.79q.06,31.31.11,62.61C158.1,171.77,158.19,172.94,157.17,173.75Z"/></g></g></svg>